<svg xmlns="http://www.w3.org/2000/svg" viewBox="-42.2 -0.5 512 512">
  <path
     style="fill: hsl(74, 91%, 47%)"
     d="M 214.69922 0 C 117.19952 0.6999979 32.099934 66.300201 10.5 133 C -3.9999565 177.79988 -18.000112 261.09952 75.099609 360.69922 L 214.69922 511 L 354.30078 360.69922 C 447.40051 261.09952 433.40036 177.79988 418.90039 133 C 397.30045 66.300201 312.19892 0.6999979 214.69922 0 z M 214.66602 58.957031 L 315.00586 109.12695 L 315.00586 150.51758 L 214.66602 166.82227 L 114.32812 150.51758 L 114.32812 109.12695 L 214.66602 58.957031 z M 123.86133 169.73242 L 223.97852 190.81836 L 223.97852 190.82031 L 317.75195 229.89258 L 305.51367 269.30859 L 206.09961 248.39844 L 206.09961 248.39648 L 111.64844 209.06836 L 123.86133 169.73242 z M 214.66602 272.17773 L 315.00586 288.48242 L 315.00586 329.87305 L 214.66602 380.04297 L 114.32812 329.87305 L 114.32812 288.48242 L 214.66602 272.17773 z " />
  <path
     style="fill: hsl(74, 91%, 47%); opacity: 0.5"
     d="M 214.66602 119.16016 L 114.32812 150.51758 L 214.66602 166.82227 L 315.00586 150.51758 L 214.66602 119.16016 z M 214.66602 272.17773 L 114.32812 288.48242 L 214.66602 319.83984 L 315.00586 288.48242 L 214.66602 272.17773 z " />
</svg>
