<svg id="main_svg" xmlns="http://www.w3.org/2000/svg" width="100%" height="100%" viewBox="0 0 920 480">
  <style>
    :root {
      --clr-grey-0: hsl(74, 0%, 100%);
      --clr-grey-100: hsl(74, 0%, 98.208%);
      --clr-grey-200: hsl(74, 0%, 91.464%);
      --clr-grey-300: hsl(74, 0%, 82.416%);
      --clr-grey-400: hsl(74, 0%, 71.712%);
      --clr-grey-500: hsl(74, 0%, 60%);
      --clr-grey-600: hsl(74, 0%, 47.928%);
      --clr-grey-700: hsl(74, 0%, 36.144%);
      --clr-grey-800: hsl(74, 0%, 25.296%);
      --clr-grey-900: hsl(74, 0%, 16.032%);
      --clr-grey-1000: hsl(74, 0%, 9%);
      --clr-primary-0: hsl(74, 84%, 98%);
      --clr-primary-100: hsl(74, 86.649%, 88.089%);
      --clr-primary-200: hsl(74, 88.632%, 77.752%);
      --clr-primary-300: hsl(74, 90.003%, 67.283%);
      --clr-primary-400: hsl(74, 90.816%, 56.976%);
      --clr-primary-500: hsl(74, 91.125%, 47.125%);
      --clr-primary-600: hsl(74, 90.984%, 38.024%);
      --clr-primary-700: hsl(74, 90.447%, 29.967%);
      --clr-primary-800: hsl(74, 89.568%, 23.248%);
      --clr-primary-900: hsl(74, 88.401%, 18.161%);
      --clr-primary-1000: hsl(74, 87%, 15%);
      --clr-secondary-0: hsl(308, 59%, 100%);
      --clr-secondary-100: hsl(308, 51.832%, 90.76%);
      --clr-secondary-200: hsl(308, 45.936%, 79.56%);
      --clr-secondary-300: hsl(308, 41.324%, 67.88%);
      --clr-secondary-400: hsl(308, 38.008%, 56.2%);
      --clr-secondary-500: hsl(308, 36%, 45%);
      --clr-secondary-600: hsl(308, 35.312%, 34.76%);
      --clr-secondary-700: hsl(308, 35.956%, 25.96%);
      --clr-secondary-800: hsl(308, 37.944%, 19.08%);
      --clr-secondary-900: hsl(308, 41.288%, 14.6%);
      --clr-secondary-1000: hsl(308, 46%, 13%);
      --clr-tertiary-0: hsl(170, 92%, 100%);
      --clr-tertiary-100: hsl(170, 76.4%, 93.379%);
      --clr-tertiary-200: hsl(170, 63.8%, 85.192%);
      --clr-tertiary-300: hsl(170, 54.2%, 75.853%);
      --clr-tertiary-400: hsl(170, 47.6%, 65.776%);
      --clr-tertiary-500: hsl(170, 44%, 55.375%);
      --clr-tertiary-600: hsl(170, 43.4%, 45.064%);
      --clr-tertiary-700: hsl(170, 45.8%, 35.257%);
      --clr-tertiary-800: hsl(170, 51.2%, 26.368%);
      --clr-tertiary-900: hsl(170, 59.6%, 18.811%);
      --clr-tertiary-1000: hsl(170, 71%, 13%);
      --clr-quarternary-0: hsl(355, 94%, 100%);
      --clr-quarternary-100: hsl(355, 95.536%, 94.986%);
      --clr-quarternary-200: hsl(355, 95.488%, 88.568%);
      --clr-quarternary-300: hsl(355, 94.072%, 81.082%);
      --clr-quarternary-400: hsl(355, 91.504%, 72.864%);
      --clr-quarternary-500: hsl(355, 88%, 64.25%);
      --clr-quarternary-600: hsl(355, 83.776%, 55.576%);
      --clr-quarternary-700: hsl(355, 79.048%, 47.178%);
      --clr-quarternary-800: hsl(355, 74.032%, 39.392%);
      --clr-quarternary-900: hsl(355, 68.944%, 32.554%);
      --clr-quarternary-1000: hsl(355, 64%, 27%);
      --clr-quinary-0: hsl(42, 100%, 100%);
      --clr-quinary-100: hsl(42, 100%, 90.671%);
      --clr-quinary-200: hsl(42, 100%, 82.368%);
      --clr-quinary-300: hsl(42, 100%, 74.917%);
      --clr-quinary-400: hsl(42, 100%, 68.144%);
      --clr-quinary-500: hsl(42, 100%, 61.875%);
      --clr-quinary-600: hsl(42, 100%, 55.936%);
      --clr-quinary-700: hsl(42, 100%, 50.153%);
      --clr-quinary-800: hsl(42, 100%, 44.352%);
      --clr-quinary-900: hsl(42, 100%, 38.359%);
      --clr-quinary-1000: hsl(42, 100%, 32%);
    }
    @media (prefers-color-scheme: dark) {
      .c0.s0{fill: var(--clr-grey-0);}
      .c0.s1{fill: var(--clr-grey-100);}
      .c0.s2{fill: var(--clr-grey-200);}
      .c0.s3{fill: var(--clr-grey-300);}
      .c0.s4{fill: var(--clr-grey-400);}
      .c0.s5{fill: var(--clr-grey-500);}
      .c1.s0{fill: var(--clr-primary-0);}
      .c1.s1{fill: var(--clr-primary-100);}
      .c1.s2{fill: var(--clr-primary-200);}
      .c1.s3{fill: var(--clr-primary-300);}
      .c1.s4{fill: var(--clr-primary-400);}
      .c1.s5{fill: var(--clr-primary-500);}
      .c2.s0{fill: var(--clr-secondary-0);}
      .c2.s1{fill: var(--clr-secondary-100);}
      .c2.s2{fill: var(--clr-secondary-200);}
      .c2.s3{fill: var(--clr-secondary-300);}
      .c2.s4{fill: var(--clr-secondary-400);}
      .c2.s5{fill: var(--clr-secondary-500);}
      .c3.s0{fill: var(--clr-tertiary-0);}
      .c3.s1{fill: var(--clr-tertiary-100);}
      .c3.s2{fill: var(--clr-tertiary-200);}
      .c3.s3{fill: var(--clr-tertiary-300);}
      .c3.s4{fill: var(--clr-tertiary-400);}
      .c3.s5{fill: var(--clr-tertiary-500);}
      .c4.s0{fill: var(--clr-quarternary-0);}
      .c4.s1{fill: var(--clr-quarternary-100);}
      .c4.s2{fill: var(--clr-quarternary-200);}
      .c4.s3{fill: var(--clr-quarternary-300);}
      .c4.s4{fill: var(--clr-quarternary-400);}
      .c4.s5{fill: var(--clr-quarternary-500);}
      .c5.s0{fill: var(--clr-quinary-0);}
      .c5.s1{fill: var(--clr-quinary-100);}
      .c5.s2{fill: var(--clr-quinary-200);}
      .c5.s3{fill: var(--clr-quinary-300);}
      .c5.s4{fill: var(--clr-quinary-400);}
      .c5.s5{fill: var(--clr-quinary-500);}
    }
    @media not (prefers-color-scheme: dark) {
      .c0.s0{fill: var(--clr-grey-1000);}
      .c0.s1{fill: var(--clr-grey-900);}
      .c0.s2{fill: var(--clr-grey-800);}
      .c0.s3{fill: var(--clr-grey-700);}
      .c0.s4{fill: var(--clr-grey-600);}
      .c0.s5{fill: var(--clr-grey-500);}
      .c1.s0{fill: var(--clr-primary-1000);}
      .c1.s1{fill: var(--clr-primary-900);}
      .c1.s2{fill: var(--clr-primary-800);}
      .c1.s3{fill: var(--clr-primary-700);}
      .c1.s4{fill: var(--clr-primary-600);}
      .c1.s5{fill: var(--clr-primary-500);}
      .c2.s0{fill: var(--clr-secondary-1000);}
      .c2.s1{fill: var(--clr-secondary-900);}
      .c2.s2{fill: var(--clr-secondary-800);}
      .c2.s3{fill: var(--clr-secondary-700);}
      .c2.s4{fill: var(--clr-secondary-600);}
      .c2.s5{fill: var(--clr-secondary-500);}
      .c3.s0{fill: var(--clr-tertiary-1000);}
      .c3.s1{fill: var(--clr-tertiary-900);}
      .c3.s2{fill: var(--clr-tertiary-800);}
      .c3.s3{fill: var(--clr-tertiary-700);}
      .c3.s4{fill: var(--clr-tertiary-600);}
      .c3.s5{fill: var(--clr-tertiary-500);}
      .c4.s0{fill: var(--clr-quarternary-1000);}
      .c4.s1{fill: var(--clr-quarternary-900);}
      .c4.s2{fill: var(--clr-quarternary-800);}
      .c4.s3{fill: var(--clr-quarternary-700);}
      .c4.s4{fill: var(--clr-quarternary-600);}
      .c4.s5{fill: var(--clr-quarternary-500);}
      .c5.s0{fill: var(--clr-quinary-1000);}
      .c5.s1{fill: var(--clr-quinary-900);}
      .c5.s2{fill: var(--clr-quinary-800);}
      .c5.s3{fill: var(--clr-quinary-700);}
      .c5.s4{fill: var(--clr-quinary-600);}
      .c5.s5{fill: var(--clr-quinary-500);}
    }
  </style>
  <g id="svg_g_bezier_cells">
    <path
      d="M14.128 24.29c12.128 2.468 14.534.503 17.667-10.893C34.927 2 34.927 2 18.464 2 2 2 2 2 2 11.912c0 9.911 0 9.911 12.128 12.379z"
      class="c4 s3" id="p1" />
    <path
      d="M353.674 13.01c2.637 11.01 2.637 11.01 6.677 14.643 4.04 3.634 4.04 3.634 7.242 3.83 3.203.196 3.203.196 16.991-12.99C398.788 2 398.788 2 374.912 2s-23.876 0-21.238 11.01z"
      class="c3 s4" id="p2" />
    <path
      d="M256.43 9.5c2.462 7.501 2.462 7.501 11.548 16.067 9.086 8.566 9.086 8.566 24.023.144 14.938-8.422 14.938-8.422 15.523-16.067C308.11 2 308.11 2 281.04 2c-27.07 0-27.07 0-24.609 7.5z"
      class="c1 s3" id="p3" />
    <path
      d="M416.996 19.113c14.616 13.617 14.616 13.617 34.258-1.748C470.896 2 470.896 2 436.857 2c-34.477 3.496-34.477 3.496-19.86 17.113z"
      class="c1 s3" id="p4" />
    <path
      d="M580.344 19.13c11.345 16.45 11.345 16.45 33.962 4.632 22.616-11.819 22.616-11.819 22.633-16.79C636.957 2 636.957 2 602.977 2c-33.978.679-33.978.679-22.633 17.13z"
      class="c4 s5" id="p5" />
    <path
      d="M736.017 17.048c7.763 15.049 7.763 15.049 14.022 17.153 6.259 2.104 6.259 2.104 15.969-15.048C775.718 2 775.718 2 751.985 2c-23.732 0-23.732 0-15.968 15.048z"
      class="c3 s3" id="p6" />
    <path
      d="M650.65 27.214c9.73 14.656 9.73 14.656 22.978 9.052 13.248-5.604 13.248-5.604 19.353-19.935C699.085 2 699.085 2 670.02 2s-29.064 0-29.083 5.278c-.018 5.279-.018 5.279 9.712 19.936z"
      class="c2 s5" id="p7" />
    <path
      d="M51.476 24.256c18.44.278 18.44.278 21.17-10.989C75.375 2 75.375 2 57.226 2c-18.15 0-18.15 0-21.17 10.99-3.021 10.988-3.021 10.988 15.42 11.266z"
      class="c2 s5" id="p8" />
    <path
      d="M489.878 16.584c6.964 14.585 6.964 14.585 22.402 18.175s15.438 3.59 34.078-14.355C564.996 2 564.996 2 523.955 2s-41.041 0-34.077 14.584z"
      class="c1 s5" id="p9" />
    <path
      d="M317.044 21.901c6.111 4.366 6.111 4.366 20.55 2.899 14.44-1.468 14.44-1.468 11.884-12.134C346.923 2 346.923 2 329.522 2c-17.4 0-17.4 0-17.995 7.767-.595 7.768-.595 7.768 5.517 12.134z"
      class="c4 s3" id="p10" />
    <path
      d="M118.814 13.856c1.495 11.855 1.495 11.855 16.051 17.139 14.557 5.283 14.557 5.283 22.374-11.856C165.055 2 165.055 2 141.187 2s-23.868 0-22.373 11.856z"
      class="c5 s3" id="p11" />
    <path
      d="M867.229 12.643c.339 10.644.339 10.644 25.555 24.006S918 50.01 918 26.006C918 2 918 2 892.445 2s-25.555 0-25.216 10.643z"
      class="c4 s3" id="p12" />
    <path
      d="M79.111 36.335c5.501 10.058 5.501 10.058 12.176 9.518 6.675-.54 6.675-.54 15.88-9.963 9.206-9.423 9.206-9.423 7.663-21.656C113.287 2 113.287 2 96.39 2S79.491 2 76.551 14.139c-2.94 12.138-2.94 12.138 2.56 22.196z"
      class="c5 s4" id="p13" />
    <path
      d="M805.397 22.35c2.916 20.351 2.916 20.351 18.597 28.577 15.681 8.225 15.681 8.225 27.637-9.389 11.955-17.613 11.955-17.613 11.606-28.576C862.887 2 862.887 2 832.684 2c-30.204 0-30.204 0-27.287 20.35z"
      class="c3 s3" id="p14" />
    <path
      d="M764.65 45.89c5.064 7.272 5.064 7.272 22.335 1.984 17.27-5.288 17.27-5.288 14.362-25.581C798.44 2 798.44 2 789.377 2c-9.064 0-9.064 0-19.427 18.309-10.364 18.308-10.364 18.308-5.3 25.58z"
      class="c5 s3" id="p15" />
    <path
      d="M702.787 40.72c11.941 9.173 11.941 9.173 24.467.76 12.526-8.413 12.526-8.413 4.512-23.946C723.753 2 723.753 2 713.593 2c-10.16 0-10.16 0-16.453 14.774-6.293 14.774-6.293 14.774 5.647 23.947z"
      class="c1 s4" id="p16" />
    <path
      d="M202.267 27.631c.723 25.631.723 25.631 6.433 30.248 5.709 4.617 5.709 4.617 25.948-17.816 20.24-22.434 20.24-22.434 17.676-30.248C249.759 2 249.759 2 225.652 2s-24.107 0-23.385 25.631z"
      class="c5 s5" id="p17" />
    <path
      d="M156.17 47.815c3.523 8.97 3.523 8.97 23.16 6.803 19.636-2.165 19.636-2.165 18.924-27.392C197.544 2 197.544 2 183.497 2c-14.045 0-14.045 0-22.448 18.423-8.402 18.423-8.402 18.423-4.879 27.392z"
      class="c3 s5" id="p18" />
    <path
      d="M386.084 48.31c11.816 14.415 11.816 14.415 27.244 3.219 16.041-15.422 16.041-15.422 1.5-28.97-14.542-13.547-14.542-13.547-27.551-1.106-13.01 12.44-13.01 12.44-1.193 26.856z"
      class="c5 s5" id="p19" />
    <path
      d="M279.71 41.077c.697 3.45.697 3.45 18.01 10.91 17.315 7.458 17.315 7.458 20.006-7.651 2.69-15.11 2.69-15.11-3.155-19.286-5.846-4.176-5.846-4.176-20.703 4.2-14.856 8.377-14.856 8.377-14.159 11.827z"
      class="c3 s5" id="p20" />
    <path
      d="M602.778 52.288c9.693 10.794 9.693 10.794 31.864 2.857 22.827-10.428 22.827-10.428 13.216-24.904-9.61-14.477-9.61-14.477-32.204-2.67-22.569 13.924-22.569 13.924-12.876 24.717z"
      class="c3 s4" id="p21" />
    <path
      d="M538.3 54.209c7.474 13.297 7.474 13.297 14.828 12.964 7.354-.333 7.354-.333 21.655-13.062 14.271-15.305 14.271-15.305 3.09-31.519-11.181-16.213-11.181-16.213-29.115 1.054-17.934 17.266-17.934 17.266-10.459 30.563z"
      class="c1 s4" id="p22" />
    <path
      d="M32.523 46.634c3.532 16.946 3.532 16.946 19.123 19.28 15.592 2.334 15.592 2.334 22.538-7.609 6.946-9.942 6.946-9.942 1.526-19.853-5.42-9.911-5.42-9.911-25.005-10.207-21.713 1.443-21.713 1.443-18.182 18.389z"
      class="c4 s5" id="p23" />
    <path
      d="M450.827 62.385c18.106 21.529 21.003 20.633 31.716-4.404 10.714-25.037 10.714-25.037 3.326-40.51C477.388 2 477.388 2 455.375 19.22c-22.654 21.635-22.654 21.635-4.548 43.165z"
      class="c2 s4" id="p24" />
    <path
      d="M325.19 70.688c6.508 8.899 6.508 8.899 21.147-14.097s14.639-22.996 11.067-26.208c-3.572-3.213-3.572-3.213-18.332-1.713-14.761 1.5-14.761 1.5-17.576 17.31-2.815 15.81-2.815 15.81 3.693 24.708z"
      class="c1 s3" id="p25" />
    <path
      d="M118.247 65.747c16.635 18.447 16.635 18.447 21.971 15.027 5.336-3.42 5.336-3.42 10.649-12.707 5.312-9.288 5.312-9.288 1.695-18.498-3.618-9.21-3.618-9.21-18.586-14.642-14.968-5.433-14.968-5.433-23.666 3.47s-8.698 8.903 7.937 27.35z"
      class="c3 s5" id="p26" />
    <path
      d="M239.832 74.181c21.676 6.009 21.676 6.009 29.206-11.222 7.53-17.231 7.53-17.231 6.71-21.286-.82-4.055-.82-4.055-9.651-12.382-8.832-8.326-8.832-8.326-28.97 13.996-18.972 24.886-18.972 24.886 2.705 30.894z"
      class="c2 s3" id="p27" />
    <path
      d="M8.904 80.3c6.904-.375 6.904-.375 15.097-8.01 8.192-7.634 8.192-7.634 4.644-24.66s-3.548-17.026-15.097-19.375C2 25.905 2 25.905 2 53.289S2 80.673 8.904 80.3z"
      class="c5 s5" id="p28" />
    <path
      d="M716.804 72.796c.145 19.38.145 19.38 16.878 20.57 16.733 1.188 16.733 1.188 22.14-3.061s5.407-4.249 8.186-19.298c2.78-15.049 2.78-15.049-2.633-22.822s-5.413-7.773-12.059-10.007c-6.645-2.234-6.645-2.234-19.652 6.502-13.006 8.736-13.006 8.736-12.86 28.116z"
      class="c3 s3" id="p29" />
    <path
      d="M667.312 72.014c6.758 23.304 6.758 23.304 20.855 25.024 14.097 1.72 14.097 1.72 19.442-1.227 5.345-2.947 5.345-2.947 5.197-22.706-.149-19.758-.149-19.758-12.425-29.189-12.276-9.43-12.276-9.43-25.67-3.764-14.156 8.558-14.156 8.558-7.399 31.862z"
      class="c5 s5" id="p30" />
    <path
      d="M842.808 66.734c.422 4.454.422 4.454 9.158 13.778 8.736 9.324 8.736 9.324 23.568 13.509 14.83 4.185 14.83 4.185 28.648-1.946C918 85.943 918 85.943 918 70.24c0-15.703 0-15.703-25.873-29.413s-25.873-13.71-37.807 3.87c-11.934 17.582-11.934 17.582-11.512 22.036z"
      class="c4 s5" id="p31" />
    <path
      d="M357.5 91.822c23.428 5.26 23.428 5.26 30.493-2.794 7.066-8.054 7.066-8.054 7.3-15.472.233-7.418.233-7.418-12.254-22.651-18.412-15.596-18.412-15.596-33.798 8.572-15.17 27.086-15.17 27.086 8.258 32.345z"
      class="c3 s4" id="p32" />
    <path
      d="M484.745 88.25c8.866 4.525 8.866 4.525 29.565-.829 20.698-5.354 20.698-5.354 24.359-11.617 3.66-6.264 3.66-6.264-3.999-19.888-7.658-13.624-7.658-13.624-22.849-17.157-15.19-3.533-15.19-3.533-25.566 20.716-10.376 24.249-10.376 24.249-1.51 28.774z"
      class="c1 s5" id="p33" />
    <path
      d="M425.23 87.644c26.145 7.39 26.145 7.39 29.764 6.117 3.618-1.274 3.618-1.274 7.064-4.492 3.445-3.218 3.445-3.218-14.166-24.16-17.611-20.94-17.611-20.94-32.993-9.778-15.382 11.163-15.382 11.163-15.599 18.043-.217 6.88-.217 6.88 25.93 14.27z"
      class="c2 s5" id="p34" />
    <path
      d="M784.705 91.24c19.35 5.504 19.35 5.504 36.924-7.312 17.576-12.817 17.576-12.817 17.192-16.862-.383-4.046-.383-4.046-16.463-12.48-16.08-8.436-16.08-8.436-33.893-2.982-17.813 5.454-17.813 5.454-20.461 19.793-2.648 14.34-2.648 14.34 16.7 19.843z"
      class="c2 s5" id="p35" />
    <path
      d="M270.109 92.784c5.25 10.27 5.25 10.27 30.935 4.488 28.816-13.423 28.816-13.423 21.52-23.397-7.295-9.973-7.295-9.973-25.084-17.637-17.79-7.664-17.79-7.664-25.206 9.306s-7.416 16.97-2.165 27.24z"
      class="c2 s3" id="p36" />
    <path
      d="M580.727 89.599c16.688 20.568 16.688 20.568 22.073 16.798 5.385-3.77 5.385-3.77 6.215-22.011.83-18.242.83-18.242-8.624-28.77-9.455-10.528-9.455-10.528-22.904 1.443-13.449 11.97-13.449 11.97 3.24 32.54z"
      class="c1 s3" id="p37" />
    <path
      d="M75.564 86.465c5.184 15.73 5.184 15.73 28.754 12.134 23.57-3.597 23.57-3.597 25.68-7.553 2.11-3.955 2.11-3.955-14.921-22.841-17.031-18.886-17.031-18.886-23.764-18.341-6.732.545-6.732.545-13.833 10.708-7.1 10.162-7.1 10.162-1.916 25.893z"
      class="c4 s3" id="p38" />
    <path
      d="M634.764 104.1c22.542 2.204 22.542 2.204 28.997-2.754 6.455-4.957 6.455-4.957-.077-27.483-6.532-22.527-6.532-22.527-28.2-14.77-21.667 7.755-21.667 7.755-22.464 25.279-.798 17.523-.798 17.523 21.744 19.727z"
      class="c1 s3" id="p39" />
    <path
      d="M173.774 94.019c24.06 15.881 26.127 15.661 33.457-4.214C213 66.501 213 66.501 206.704 61.41c-6.297-5.092-6.297-5.092-26.69-2.843-20.392 2.25-20.392 2.25-25.346 10.91-4.954 8.66-4.954 8.66 19.106 24.542z"
      class="c5 s3" id="p40" />
    <path
      d="M31.254 103.206C43.34 124.15 43.34 124.15 57.69 118.843c14.35-5.306 14.35-5.306 16.932-9.963 2.583-4.658 2.583-4.658-2.693-20.666-5.276-16.009-5.276-16.009-21.083-18.375-15.807-2.367-15.807-2.367-23.742 5.028-7.936 7.395-7.936 7.395 4.15 28.339z"
      class="c5 s4" id="p41" />
    <path
      d="M547.295 107.858c8.777 23.868 8.777 23.868 11.307 25.836 2.53 1.968 2.53 1.968 15.826-3.445 13.296-5.413 13.296-5.413 16.74-11.301 3.443-5.888 3.443-5.888-13.68-26.993-17.124-21.105-17.124-21.105-24.4-20.776-7.276.33-7.276.33-10.923 6.57-3.647 6.241-3.647 6.241 5.13 30.11z"
      class="c3 s4" id="p42" />
    <path
      d="M227.826 121.274c21.387 7.087 21.387 7.087 32.47-3.297 11.819-12.482 11.819-12.482 6.394-23.093-5.425-10.61-5.425-10.61-27.077-16.612-21.652-6.002-21.652-6.002-28.811 13.41-4.363 22.505-4.363 22.505 17.024 29.592z"
      class="c4 s4" id="p43" />
    <path
      d="M502.853 110.692c6.658 14.454 6.658 14.454 27.59 17.155 20.934 2.7 20.934 2.7 12.777-19.48-8.157-22.182-8.157-22.182-27.59-17.155-19.435 5.027-19.435 5.027-12.777 19.48z"
      class="c2 s4" id="p44" />
    <path
      d="M135.458 110.582c4.123 13.543 4.123 13.543 14.17 19.46 10.047 5.916 10.047 5.916 27.098-6.055s17.051-11.971-6.322-27.4C147.03 81.16 147.03 81.16 141.54 84.678c-5.49 3.518-5.49 3.518-7.847 7.94-2.359 4.421-2.359 4.421 1.764 17.965z"
      class="c1 s3" id="p45" />
    <path
      d="M400.222 123.086c15.775 20.325 15.775 20.325 31.859-2.239 16.083-22.564 16.083-22.564-9.146-29.694-25.229-7.131-25.229-7.131-32.174.785-6.315 10.822-6.315 10.822 9.46 31.148z"
      class="c4 s4" id="p46" />
    <path
      d="M17.583 136.749c15.583-.02 15.583-.02 19.046-5.122 3.463-5.102 3.463-5.102-8.822-26.391-12.285-21.29-12.285-21.29-19.046-20.923C2 84.679 2 84.679 2 110.724s0 26.045 15.583 26.025z"
      class="c1 s3" id="p47" />
    <path
      d="M807.797 111.577c1.242 11.707 1.242 11.707 16.487 17.71 15.245 6.004 15.245 6.004 24.123-15.622 8.878-21.626 8.878-21.626.762-30.288-8.116-8.663-8.116-8.663-25.365 3.915s-17.249 12.578-16.007 24.285z"
      class="c5 s4" id="p48" />
    <path
      d="M759.614 124.555c6.334 27.166 6.334 27.166 13.04 28.192 6.707 1.026 6.707 1.026 19.575-13.836 12.868-14.863 12.868-14.863 11.619-26.643-1.25-11.78-1.25-11.78-20.803-17.341-19.553-5.562-19.553-5.562-24.659-1.55-5.106 4.012-5.106 4.012 1.228 31.178z"
      class="c5 s5" id="p49" />
    <path
      d="M332.694 125.268c2.813 31.313 2.813 31.313 10.065 30.928 7.25-.385 7.25-.385 22.48-26.644 14.725-28.587 14.725-28.587-8.796-33.867-26.561-1.73-26.561-1.73-23.749 29.583z"
      class="c1 s5" id="p50" />
    <path
      d="M88.612 136.971c12.88 21.846 12.88 21.846 29.95 4.88 17.069-16.968 17.069-16.968 13.14-29.876-3.93-12.909-3.93-12.909-27.49-9.314-23.561 3.595-23.561 3.595-26.02 8.03-2.46 4.434-2.46 4.434 10.42 26.28z"
      class="c3 s4" id="p51" />
    <path
      d="M291.727 132.851c16.402 24.42 16.402 24.42 24.06 27.876 7.658 3.457 7.658 3.457 11.735.254 4.077-3.203 4.077-3.203 1.29-34.219-2.785-31.016-2.785-31.016-27.895-25.362-25.592 7.032-25.592 7.032-9.19 31.451z"
      class="c3 s3" id="p52" />
    <path
      d="M468.388 126.179c6.529 31.25 6.529 31.25 11.432 33.944 4.902 2.693 4.902 2.693 15.493-15.278 10.59-17.97 10.59-17.97 3.564-33.224-7.026-15.253-7.026-15.253-16.392-20.034-13.2-3.596-13.2-3.596-16.913-.127-3.713 3.468-3.713 3.468 2.816 34.719z"
      class="c4 s5" id="p53" />
    <path
      d="M845.662 145.83c2.886 7.915 2.886 7.915 9.933 9.327 7.048 1.412 7.048 1.412 19.56-7.454 12.513-8.866 12.513-8.866 12.92-27.369.408-18.503.408-18.503-13.435-22.409-13.844-3.906-13.844-3.906-22.854 18.043-9.011 21.948-9.011 21.948-6.124 29.863z"
      class="c4 s3" id="p54" />
    <path
      d="M904.835 147.081C918 155.365 918 155.365 918 122.842s0-32.523-12.756-26.862c-12.756 5.66-12.756 5.66-13.165 24.239-.41 18.579-.41 18.579 12.756 26.862z"
      class="c3 s3" id="p55" />
    <path
      d="M707.411 120.268c2.576 18.362 2.576 18.362 24.82 27.873 22.246 9.512 22.246 9.512 26.03 6.985 3.784-2.527 3.784-2.527-2.523-29.58-6.308-27.052-6.308-27.052-23.317-28.26-17.01-1.208-17.01-1.208-22.298 1.706-5.288 2.915-5.288 2.915-2.712 21.276z"
      class="c5 s5" id="p56" />
    <path
      d="M418.31 151.984c.215 4.625 1.379 6.068 26.884 5.442 25.505-.627 25.505-.627 19.246-30.587-11.737-28.031-11.737-28.031-29.04-3.756-17.304 24.276-17.304 24.276-17.09 28.9z"
      class="c1 s5" id="p57" />
    <path
      d="M608.219 146.025c16.672 19.801 16.672 19.801 30.98 15.028 14.308-4.773 14.308-4.773 15.457-27.825 1.149-23.052 1.149-23.052-21.414-25.258-22.563-2.207-22.563-2.207-28.632 2.042-6.069 4.25-6.069 4.25-9.566 10.23-3.497 5.982-3.497 5.982 13.175 25.783z"
      class="c5 s3" id="p58" />
    <path
      d="M360.894 159.498c6.809 2.74 6.809 2.74 30.195-.564 23.386-3.304 23.386-3.304 23.197-7.376-.189-4.072-.189-4.072-15.824-24.215-15.634-20.144-15.634-20.144-30.006 4.635-14.37 24.78-14.37 24.78-7.562 27.52z"
      class="c5 s5" id="p59" />
    <path
      d="M669.248 164.376c11.756 7.677 13.528 7.6 25.176-8.634 11.647-16.232 11.647-16.232 9.06-34.677-2.588-18.445-2.588-18.445-16.493-20.141-13.905-1.696-13.905-1.696-20.523 3.387-6.62 5.083-6.62 5.083-7.798 28.735s-1.178 23.652 10.578 31.33z"
      class="c2 s4" id="p60" />
    <path
      d="M164.886 151.704c2.866 12.504 2.866 12.504 20.131 11.55 17.265-.954 17.265-.954 17.77-23.769-4.73-25.586-4.73-25.586-22.749-12.936-18.018 12.65-18.018 12.65-15.152 25.155z"
      class="c2 s3" id="p61" />
    <path
      d="M209.31 165.446c3.046 2.245 3.046 2.245 20.442-8.889 17.395-11.134 17.395-11.134 17.65-17.816.255-6.682.255-6.682-19.95-13.377-20.203-6.695-20.203-6.695-20.696 15.57-.493 22.267-.493 22.267 2.553 24.512z"
      class="c2 s5" id="p62" />
    <path
      d="M257.304 155.205c6.174 9.233 6.174 9.233 26.141 5.725 19.967-3.509 19.967-3.509 4.64-26.328-15.328-22.818-15.328-22.818-25.866-12.945-10.539 9.874-10.539 9.874-10.814 17.094-.276 7.221-.276 7.221 5.899 16.454z"
      class="c1 s3" id="p63" />
    <path
      d="M795.564 168.126c12.667 12.326 12.667 12.326 17.28 12.604 4.614.278 4.614.278 18.249-12.754 13.634-13.033 13.634-13.033 10.8-20.802-2.833-7.77-2.833-7.77-18.482-13.931-15.648-6.162-15.648-6.162-28.08 8.197-12.433 14.36-12.433 14.36.233 26.686z"
      class="c2 s5" id="p64" />
    <path
      d="M490.025 169.895c2.277 4.336 2.277 4.336 6.71 7.27 4.434 2.933 4.434 2.933 32.956-17.157 28.848-21.296 28.848-21.296 26.376-23.218-2.472-1.923-2.472-1.923-24.664-4.786-22.192-2.864-22.192-2.864-32.923 15.346-10.732 18.21-10.732 18.21-8.455 22.545z"
      class="c4 s4" id="p65" />
    <path
      d="M41.034 156.62c4.64 17.525 4.64 17.525 31.052 14.914 26.412-2.61 26.412-2.61 26.678-5.813.266-3.203.266-3.203-12.971-25.656-13.238-22.454-13.238-22.454-27.643-17.127-14.404 5.327-14.404 5.327-18.08 10.742-3.677 5.416-3.677 5.416.964 22.94z"
      class="c4 s4" id="p66" />
    <path
      d="M120.447 178.342c16.875 6.258 16.875 6.258 25.737 5.18 8.863-1.078 8.863-1.078 13.37-9.298 4.506-8.22 4.506-8.22 1.483-21.411-3.024-13.191-3.024-13.191-12.926-19.022-9.901-5.832-9.901-5.832-27.502 11.663-17.6 17.495-17.6 17.495-17.904 21.143.868 5.488.868 5.488 17.742 11.745z"
      class="c5 s5" id="p67" />
    <path
      d="M702.309 184.178c15.658 10.742 15.658 10.742 23.906 10.147 8.249-.594 8.249-.594 16.967-17.009 8.717-16.415 8.717-16.415-12.806-25.618s-21.523-9.203-32.624 6.268c-11.101 15.47-11.101 15.47 4.557 26.212z"
      class="c1 s5" id="p68" />
    <path
      d="M17.946 199.178c15.945-7.845 15.945-7.845 20.02-15.484 4.076-7.64 4.076-7.64-.601-25.302-4.678-17.663-4.678-17.663-20.021-17.643C2 140.77 2 140.77 2 173.896c0 33.126 0 33.126 15.946 25.282z"
      class="c1 s4" id="p69" />
    <path
      d="M873.233 173.156c7.531 13.851 7.531 13.851 26.15 10.15C918 179.602 918 179.602 918 169.845c0-9.755 0-9.755-14.144-18.655-14.145-8.9-14.145-8.9-26.15-.393-12.005 8.507-12.005 8.507-4.473 22.358z"
      class="c1 s4" id="p70" />
    <path
      d="M565.007 159.887c3.008 18.643 3.008 18.643 13.513 23.854 10.505 5.211 10.505 5.211 26.51-3.859 16.907-11.354 16.907-11.354.196-31.201-16.711-19.848-16.711-19.848-29.724-14.55-13.504 7.113-13.504 7.113-10.495 25.756z"
      class="c3 s4" id="p71" />
    <path
      d="M218.535 185.607c3.946 14.596 3.946 14.596 6.985 17.228 3.039 2.632 3.039 2.632 17.082-4.787 14.043-7.419 14.043-7.419 15.94-19.187 1.899-11.77 1.899-11.77-4.055-20.672-5.954-8.904-5.954-8.904-22.926 1.959-16.972 10.862-16.972 10.862-13.026 25.459z"
      class="c2 s5" id="p72" />
    <path
      d="M508.719 191.433c4.861 8.335 4.861 8.335 20.573 8.503 15.712.169 15.712.169 25.248-10.27 9.536-10.437 9.536-10.437 6.743-27.744-2.793-17.306-2.793-17.306-30.11 1.935-27.316 19.24-27.316 19.24-22.454 27.576z"
      class="c3 s3" id="p73" />
    <path
      d="M268.853 195.018c8.186 4.203 8.186 4.203 30.104-9.596 22.552-17.724 22.552-17.724 15.06-21.105-7.491-3.382-7.491-3.382-28.61.33-21.118 3.71-21.118 3.71-22.93 14.94-1.81 11.23-1.81 11.23 6.376 15.431z"
      class="c5 s3" id="p74" />
    <path
      d="M421.367 177.917c.547 15.89.547 15.89 17.38 20.933 16.833 5.043 16.833 5.043 33.177-9.327 16.344-14.37 16.344-14.37 14.195-18.464-2.15-4.093-2.15-4.093-7.806-7.2-5.656-3.107-5.656-3.107-31.574-2.47-25.92.637-25.92.637-25.372 16.528z"
      class="c4 s3" id="p75" />
    <path
      d="M165.407 194.584c6.77 10.369 6.77 10.369 29.768 7.69 22.998-2.677 22.998-2.677 19.175-16.82-3.823-14.142-3.823-14.142-7.27-16.682-3.447-2.54-3.447-2.54-21.564-1.54-18.117 1.002-18.117 1.002-22.498 8.993-4.38 7.99-4.38 7.99 2.389 18.359z"
      class="c2 s5" id="p76" />
    <path
      d="M373.584 184.958c3.76 18.98 3.76 18.98 16.63 25.52 12.87 6.54 12.87 6.54 20.3-4.6 7.43-11.141 7.43-11.141 6.845-28.104-1.646-18.28-1.646-18.28-24.59-15.037-22.944 3.242-22.944 3.242-19.185 22.221z"
      class="c4 s5" id="p77" />
    <path
      d="M830.19 195.704c9.317 12.426 9.317 12.426 22.963 14.817 14.732 1.788 14.732 1.788 19.537-9.683 4.805-11.47 4.805-11.47-3.05-25.916-7.855-14.445-7.855-14.445-14.906-15.858-7.051-1.413-7.051-1.413-20.456 11.4s-13.405 12.813-4.088 25.24z"
      class="c1 s4" id="p78" />
    <path
      d="M630.67 194.18c5.931 21.86 5.931 21.86 15.28 23.803 9.35 1.942 9.35 1.942 20.632-20.63 11.281-22.573 11.281-22.573-.074-29.99-11.355-7.415-11.355-7.415-26.055-2.511-15.713 7.47-15.713 7.47-9.783 29.329z"
      class="c2 s3" id="p79" />
    <path
      d="M751.876 213.324c13.794 17.878 13.794 17.878 18.459 15.895 4.665-1.982 4.665-1.982 19.555-24.263 14.89-22.28 14.89-22.28 2.108-34.72-12.783-12.439-12.783-12.439-20.005-13.544-7.22-1.104-7.22-1.104-11.499 1.752-4.278 2.857-4.278 2.857-13.345 19.93-9.066 17.071-9.066 17.071 4.727 34.95z"
      class="c4 s3" id="p80" />
    <path
      d="M329.442 193.514c4.7 20.743 4.7 20.743 24.25 15.53 19.552-5.214 19.552-5.214 15.78-24.256-3.771-19.043-3.771-19.043-11.191-22.03-7.42-2.987-7.42-2.987-15.638-2.55-8.217.436-8.217.436-12.641 3.912-5.26 8.651-5.26 8.651-.56 29.394z"
      class="c1 s5" id="p81" />
    <path
      d="M56.781 209.89c18.936 17.468 18.936 17.468 25.045 13.312 6.108-4.157 6.108-4.157 12.184-26.652 5.316-23.689 5.316-23.689-21.628-21.026-26.944 2.664-26.944 2.664-30.74 9.78-3.797 7.117-3.797 7.117 15.139 24.586z"
      class="c1 s4" id="p82" />
    <path
      d="M594.353 214.756c3.1 22.47 3.1 22.47 20.703 12.252 17.604-10.218 17.604-10.218 11.964-31.006-5.64-20.787-5.64-20.787-20.703-12.251-15.064 8.536-15.064 8.536-11.964 31.005z"
      class="c1 s3" id="p83" />
    <path
      d="M287.51 223.442c7.926 21.098 7.926 21.098 25.496 7.142 17.571-13.956 17.571-13.956 12.972-34.253-4.598-20.298-4.598-20.298-25.495-7.142-20.897 13.155-20.897 13.155-12.972 34.253z"
      class="c2 s5" id="p84" />
    <path
      d="M895.033 222.755C918 232.831 918 232.831 918 208.256c0-24.575 0-24.575-18.428-20.91-18.428 3.664-18.428 3.664-22.967 14.499-4.539 10.834-4.539 10.834 18.428 20.91z"
      class="c4 s5" id="p85" />
    <path
      d="M560.782 222.245c12.405 19.902 12.405 19.902 22.612 18.12 10.208-1.782 10.208-1.782 7.032-24.805s-3.176-23.023-13.468-28.129c-10.293-5.106-10.293-5.106-19.437 4.903-9.145 10.01-9.145 10.01 3.26 29.911z"
      class="c3 s5" id="p86" />
    <path
      d="M107.975 224.4c15.884 5.409 15.884 5.409 21.301-15.55 5.417-20.959 5.417-20.959-10.126-26.723-15.544-5.764-15.544-5.764-21.301 15.551-5.758 21.315-5.758 21.315 10.126 26.723z"
      class="c2 s5" id="p87" />
    <path
      d="M666.433 231.987c7.684 10.016 7.684 10.016 15.527 10.188 7.842.171 7.842.171 20.33-22.21 12.488-22.382 12.488-22.382-3.274-33.195-17.304-10.744-17.304-10.744-28.786 12.228-11.481 22.973-11.481 22.973-3.797 32.99z"
      class="c4 s4" id="p88" />
    <path
      d="M461.141 217.061c2.814 10.258 2.814 10.258 21.151 17.335 18.338 7.077 18.338 7.077 23.168-12.627 4.83-19.704 4.83-19.704-.46-28.772-5.288-9.067-5.288-9.067-9.673-11.968-4.385-2.902-4.385-2.902-20.692 11.436-16.308 14.339-16.308 14.339-13.494 24.596z"
      class="c2 s4" id="p89" />
    <path
      d="M147.592 230.376c18.908-3.308 18.908-3.308 20.207-13.065 1.3-9.757 1.3-9.757-5.593-20.314-6.893-10.556-6.893-10.556-15.211-9.544-8.318 1.012-8.318 1.012-13.942 22.768-4.37 23.463-4.37 23.463 14.539 20.155z"
      class="c1 s5" id="p90" />
    <path
      d="M799.456 233.72c19.96 6.011 19.96 6.011 28.253-8.793 8.292-14.805 8.292-14.805-1.127-27.367-9.418-12.562-9.418-12.562-13.803-12.826-4.385-.265-4.385-.265-18.834 21.355-14.45 21.62-14.45 21.62 5.511 27.63z"
      class="c5 s5" id="p91" />
    <path
      d="M231.106 220.73c.744 11.69.744 11.69 9.772 18.127 9.029 6.437 9.029 6.437 29.927 6.78 20.899.343 20.899.343 12.817-21.173-8.083-21.517-8.083-21.517-16.615-25.897-8.533-4.38-8.533-4.38-22.59 3.046-14.056 7.426-14.056 7.426-13.311 19.116z"
      class="c3 s4" id="p92" />
    <path
      d="M420.841 232.817c13.946 14.306 13.946 14.306 26.556 4.766 12.61-9.54 12.61-9.54 9.822-19.699-2.787-10.159-2.787-10.159-19.6-15.196-16.812-5.036-16.812-5.036-23.768 5.394-6.956 10.43-6.956 10.43 6.99 24.735z"
      class="c1 s5" id="p93" />
    <path
      d="M177.482 241.177c7.124 12.786 7.124 12.786 11.771 13.716 4.648.93 4.648.93 21.62-10.736 16.973-11.666 16.973-11.666 16.22-23.492-.752-11.827-.752-11.827-3.89-14.544-3.137-2.718-3.137-2.718-26.692.025s-23.555 2.743-24.854 12.494c-1.298 9.751-1.298 9.751 5.825 22.537z"
      class="c4 s5" id="p94" />
    <path
      d="M346.631 230.47c11.314 12.385 11.314 12.385 27.512 7.302s16.198-5.083 20.97-11.488c4.77-6.405 4.77-6.405-7.498-12.64-12.269-6.234-12.269-6.234-32.283-.897-20.015 5.336-20.015 5.336-8.7 17.722z"
      class="c2 s3" id="p95" />
    <path
      d="M505.978 250.123c1.873 6.029 1.873 6.029 13.328 11.784 11.456 5.754 11.456 5.754 17.699 5.528 6.243-.225 6.243-.225 19.424-11.845 13.18-11.62 13.18-11.62.755-31.554-12.425-19.934-12.425-19.934-27.81-20.099-15.385-.165-15.385-.165-20.327 19.997-4.941 20.16-4.941 20.16-3.069 26.19z"
      class="c4 s5" id="p96" />
    <path
      d="M20.92 241.19c18.922 15.891 18.922 15.891 35.522 3.077 16.842-13.712 16.842-13.712-2.298-31.368-19.14-17.655-19.14-17.655-35.642-9.537C2 211.48 2 211.48 2 218.389c0 6.908 0 6.908 18.92 22.8z"
      class="c5 s4" id="p97" />
    <path
      d="M705.5 253.303c11.962 9.445 11.962 9.445 32.933-.07 20.971-9.517 20.971-9.517 22.662-14.369 1.69-4.852 1.69-4.852-12.31-22.999-14.001-18.147-14.001-18.147-22.076-17.565-8.076.582-8.076.582-20.623 23.07-12.547 22.489-12.547 22.489-.585 31.933z"
      class="c4 s4" id="p98" />
    <path
      d="M824.89 247.299c2.278 5.089 2.278 5.089 16.693 10.285 14.415 5.196 14.415 5.196 16.683 3.112 2.267-2.085 2.267-2.085 4.484-23.065s2.217-20.98-10.55-23.216c-12.767-2.237-12.767-2.237-21.177 12.779s-8.41 15.016-6.133 20.105z"
      class="c5 s4" id="p99" />
    <path
      d="M891.33 258.08c26.67.469 26.67.469 26.67-10.206 0-10.675 0-10.675-24.217-21.3-24.75-10.327-24.75-10.327-26.936 10.355-2.186 20.682-2.186 20.682 24.484 21.151z"
      class="c2 s5" id="p100" />
    <path
      d="M91.001 257.244c14.06 24.891 14.06 24.891 18.243 25.242 4.184.351 4.184.351 8.94-3.659 4.754-4.01 4.754-4.01 6.164-23.19-.332-21.55-.332-21.55-17.354-27.345-17.023-5.795-17.023-5.795-23.374-1.473-6.678 5.534-6.678 5.534 7.381 30.425z"
      class="c2 s5" id="p101" />
    <path
      d="M604.529 250.08c5.62 9.073 5.62 9.073 29.005 12.174 23.384 3.102 23.384 3.102 30.26-7.536 6.875-10.638 6.875-10.638-.827-20.676-7.701-10.039-7.701-10.039-17.667-12.11-9.965-2.07-9.965-2.07-28.179 8.502-18.213 10.572-18.213 10.572-12.592 19.645z"
      class="c5 s5" id="p102" />
    <path
      d="M142.68 273.147c15.65-.576 15.65-.576 26.847-9.254 11.197-8.678 11.197-8.678 4.452-20.785-6.746-12.108-6.746-12.108-25.519-8.823-18.773 3.284-18.773 3.284-20.102 21.361-1.328 18.077-1.328 18.077 14.322 17.5z"
      class="c2 s4" id="p103" />
    <path
      d="M437.164 256.976c.497 6.26.497 6.26 24.146 10.337 23.65 4.078 23.65 4.078 33.105-3.206 9.455-7.285 9.455-7.285 7.724-12.858-1.73-5.574-1.73-5.574-20.629-12.867-18.898-7.294-18.898-7.294-31.87 2.52-12.973 9.814-12.973 9.814-12.476 16.074z"
      class="c4 s5" id="p104" />
    <path
      d="M300.994 262.436c4.28 13.803 4.28 13.803 10.193 18.476 5.912 4.674 5.912 4.674 23.637 3.362 17.725-1.313 17.725-1.313 19.086-19.865 1.36-18.552 1.36-18.552-10.216-31.224-11.576-12.672-11.576-12.672-29.278 1.388-17.702 14.06-17.702 14.06-13.422 27.863z"
      class="c2 s5" id="p105" />
    <path
      d="M393.859 260.2c.292 25.144.292 25.144 9.496 27.959 9.203 2.815 9.203 2.815 12.256 1.306 3.054-1.509 3.054-1.509 10.593-13.272s7.539-11.763 6.993-18.648c-.547-6.884-.547-6.884-14.92-21.627-14.372-14.743-14.372-14.743-19.541-7.803-5.17 6.94-5.17 6.94-4.877 32.085z"
      class="c5 s4" id="p106" />
    <path
      d="M361.356 286.356c4.85 2.663 4.85 2.663 16.821.719 11.971-1.944 11.971-1.944 11.692-25.951-.28-24.007-.28-24.007-15.462-19.243-15.183 4.765-15.183 4.765-16.542 23.289-1.359 18.524-1.359 18.524 3.491 21.186z"
      class="c5 s3" id="p107" />
    <path
      d="M774.412 267.494c11.235 22.45 11.235 22.45 17.707 20.883 6.471-1.567 6.471-1.567 18.868-18.11 12.396-16.543 12.396-16.543 10.167-21.525-2.23-4.981-2.23-4.981-23.468-11.378-21.238-6.396-21.238-6.396-26.148-4.31-4.91 2.088-4.91 2.088-6.636 7.039-1.725 4.95-1.725 4.95 9.51 27.4z"
      class="c1 s3" id="p108" />
    <path
      d="M42.398 271.009c.557 10.418.557 10.418 22.084 14.89 21.527 4.473 21.527 4.473 29.045.868 7.519-3.606 7.519-3.606-5.908-27.377-13.427-23.772-13.427-23.772-29.602-11.286-16.175 12.486-16.175 12.486-15.619 22.905z"
      class="c1 s3" id="p109" />
    <path
      d="M10.466 306.367c8.465-.752 8.465-.752 18.5-12.373C39 282.374 39 282.374 38.419 271.498c-.581-10.876-.581-10.876-18.5-25.927C2 230.521 2 230.521 2 268.821c0 38.299 0 38.299 8.466 37.546z"
      class="c3 s3" id="p110" />
    <path
      d="M206.142 279.076c9.29 20.427 9.29 20.427 22.072 11.415 12.782-9.01 12.782-9.01 15.812-25.664 3.03-16.653 3.03-16.653-5.55-22.77-8.583-6.12-8.583-6.12-25.103 5.236-16.521 11.356-16.521 11.356-7.23 31.783z"
      class="c4 s4" id="p111" />
    <path
      d="M258.838 288.154c13.782 6.65 13.782 6.65 28.064-2.472 14.283-9.123 14.283-9.123 10.166-22.402-4.118-13.279-4.118-13.279-25.135-13.624-21.017-.345-21.017-.345-23.947 15.751-2.929 16.097-2.929 16.097 10.852 22.747z"
      class="c4 s3" id="p112" />
    <path
      d="M660.238 274.866c.301 6.812.301 6.812 11.12 21.832 10.818 15.02 10.818 15.02 26.394 3.417 15.577-11.604 15.577-11.604 16.463-22.869.887-11.265.887-11.265-11.54-21.077-12.426-9.812-12.426-9.812-20.457-9.988-8.03-.175-8.03-.175-15.156 10.85-7.126 11.023-7.126 11.023-6.824 17.835z"
      class="c1 s3" id="p113" />
    <path
      d="M858.615 277.424c.145 11.483.145 11.483 9.211 19.83 9.067 8.347 9.067 8.347 29.62-4.061C918 280.785 918 280.785 918 271.667s0-9.118-27.396-9.6c-27.396-.48-27.396-.48-29.765 1.697-2.369 2.177-2.369 2.177-2.224 13.66z"
      class="c1 s4" id="p114" />
    <path
      d="M817.232 293.69c14.33 5.963 14.33 5.963 25.926.408 11.597-5.555 11.597-5.555 11.458-16.585-.14-11.029-.14-11.029-14.176-16.089-14.037-5.06-14.037-5.06-25.787 10.621-11.75 15.681-11.75 15.681 2.579 21.645z"
      class="c1 s4" id="p115" />
    <path
      d="M560.82 288.978c14.102 19.497 14.102 19.497 29.935 3.278 15.833-16.218 15.833-16.218 16.006-23.458.174-7.24.174-7.24-5.764-16.825-5.938-9.584-5.938-9.584-16.916-7.667-10.978 1.916-10.978 1.916-24.17 13.546-13.192 11.63-13.192 11.63.91 31.126z"
      class="c1 s5" id="p116" />
    <path
      d="M618.944 287.305c8.359 11.081 8.359 11.081 22.965 2.512 14.607-8.57 14.607-8.57 14.342-14.56-.265-5.99-.265-5.99-22.81-8.98-22.547-2.99-22.547-2.99-22.701 3.478-.155 6.468-.155 6.468 8.204 17.55z"
      class="c2 s4" id="p117" />
    <path
      d="M733.394 301.361c16.064 12.695 16.064 12.695 28.703 9.626 12.64-3.069 12.64-3.069 16.442-10.89 3.802-7.822 3.802-7.822-7.327-30.06-11.128-22.237-11.128-22.237-31.63-12.934-20.502 9.303-20.502 9.303-21.377 20.433-.876 11.13-.876 11.13 15.189 23.825z"
      class="c1 s3" id="p118" />
    <path
      d="M438.721 296.802c15.799 8.076 15.799 8.076 26.635 3.602 10.837-4.474 10.837-4.474 14.18-14.893 3.342-10.42 3.342-10.42-19.718-14.396-23.06-3.976-23.06-3.976-29.978 6.818-6.918 10.793-6.918 10.793 8.881 18.87z"
      class="c4 s5" id="p119" />
    <path
      d="M168.144 294.134c6.727 18.895 6.727 18.895 25.441 14.469 18.952-5.806 18.952-5.806 9.153-27.35-9.798-21.542-9.798-21.542-14.362-22.456-4.565-.913-4.565-.913-15.762 7.764-11.197 8.678-11.197 8.678-4.47 27.573z"
      class="c5 s5" id="p120" />
    <path
      d="M577.619 317.172c.79 4.924.79 4.924 22.446 6.392 21.654 1.468 21.654 1.468 23.14-10.264 1.487-11.732 1.487-11.732-6.672-22.549-8.16-10.816-8.16-10.816-23.932 5.34-15.773 16.157-15.773 16.157-14.982 21.081z"
      class="c2 s4" id="p121" />
    <path
      d="M122.45 300.52c5.974 15.019 5.974 15.019 27.05 13.696 21.076-1.323 21.076-1.323 14.615-19.47-6.46-18.148-6.46-18.148-22.47-17.558-16.011.589-16.011.589-20.59 4.45-4.579 3.861-4.579 3.861 1.395 18.881z"
      class="c3 s5" id="p122" />
    <path
      d="M489.891 313.916c9.898 16.736 9.898 16.736 14.088 18.901 4.19 2.166 4.19 2.166 6.749.319 2.558-1.847 2.558-1.847 9.917-32.116 7.358-30.269 7.358-30.269-3.434-35.69-10.793-5.421-10.793-5.421-20.402 1.982-9.61 7.403-9.61 7.403-13.213 18.636-3.603 11.232-3.603 11.232 6.295 27.968z"
      class="c2 s5" id="p123" />
    <path
      d="M218.47 309.616c2.33 4.158 2.33 4.158 22.183 9.848 19.852 5.689 19.852 5.689 24.73-7.833 4.88-13.523 4.88-13.523-8.748-20.099-13.628-6.576-13.628-6.576-26.91 2.788-13.586 11.138-13.586 11.138-11.255 15.296z"
      class="c3 s3" id="p124" />
    <path
      d="M653.394 323.325c25.512-5.366 26.195-8.353 15.405-23.334-10.79-14.982-10.79-14.982-25.475-6.366-14.685 8.615-14.685 8.615-16.217 20.707.776 14.359.776 14.359 26.287 8.993z"
      class="c5 s3" id="p125" />
    <path
      d="M543.323 331.3c25.74.749 25.74.749 28.504-3.506 2.764-4.254 2.764-4.254 1.865-9.845-.898-5.59-.898-5.59-15.775-26.16-14.878-20.57-14.878-20.57-20.443-20.368-5.566.201-5.566.201-12.729 29.666-7.163 29.465-7.163 29.465 18.578 30.213z"
      class="c1 s4" id="p126" />
    <path
      d="M42.546 331.324c20.004 23.772 24.234 22.646 32.721-7.344 8.488-29.99 8.488-29.99-12.497-34.35-20.985-4.36-20.985-4.36-30.606 6.78-9.62 11.142-9.62 11.142 10.382 34.914z"
      class="c3 s4" id="p127" />
    <path
      d="M265.58 330.36c1.64 2.947 1.64 2.947 19.705 5.325 18.065 2.379 18.065 2.379 22.187-.375 4.123-2.755 4.123-2.755 5.529-24.754 1.406-22 1.406-22-4.085-26.34-5.492-4.34-5.492-4.34-20.001 4.927-14.51 9.267-14.51 9.267-19.741 23.769-5.232 14.502-5.232 14.502-3.593 17.448z"
      class="c5 s4" id="p128" />
    <path
      d="M878.816 314.493c.143 5.295.143 5.295 19.664 18.85C918 346.898 918 346.898 918 316.178c0-30.721 0-30.721-19.664-18.85-19.663 11.87-19.663 11.87-19.52 17.165z"
      class="c3 s5" id="p129" />
    <path
      d="M784.811 320.875c6.428 11.31 6.428 11.31 24.863 12.03 19.077.284 19.077.284 19.492-14.73.416-15.013.416-15.013-14.578-21.253-14.993-6.24-14.993-6.24-21.812-4.589-6.818 1.651-6.818 1.651-10.606 9.442-3.787 7.792-3.787 7.792 2.641 19.1z"
      class="c3 s4" id="p130" />
    <path
      d="M845.877 334.809c13.108 2.222 13.108 2.222 21.098-6.252 7.99-8.475 7.99-8.475 7.84-14.022-.15-5.548-.15-5.548-9.276-13.95-9.126-8.401-9.126-8.401-20.54-2.934-11.415 5.468-11.415 5.468-11.822 20.202-.408 14.733-.408 14.733 12.7 16.956z"
      class="c5 s5" id="p131" />
    <path
      d="M326.012 337.31c10.401 4.873 10.401 4.873 23.214-2.455 12.812-7.327 12.812-7.327 13.686-24.964.875-17.637.875-17.637-4.031-20.33-4.906-2.694-4.906-2.694-22.716-1.376-17.81 1.319-17.81 1.319-19.182 22.785-1.373 21.466-1.373 21.466 9.029 26.34z"
      class="c4 s3" id="p132" />
    <path
      d="M456.656 322.488c.206 14.08.206 14.08 19.343 11.116 19.136-2.964 19.136-2.964 10.056-18.316-9.08-15.353-9.08-15.353-19.342-11.116-10.263 4.236-10.263 4.236-10.057 18.316z"
      class="c5 s4" id="p133" />
    <path
      d="M415.124 318.249c.373 23.897.373 23.897 14.386 27.127 14.014 3.23 14.014 3.23 18.694-2 4.68-5.231 4.68-5.231 4.463-20.148-.218-14.917-.218-14.917-16.426-23.201-21.49-5.675-21.49-5.675-21.117 18.222z"
      class="c4 s4" id="p134" />
    <path
      d="M381.485 340.511c15.457 12.697 15.457 12.697 22.739 7.458 7.281-5.239 7.281-5.239 6.906-29.301-.375-24.063-.375-24.063-9.738-26.927-9.363-2.863-9.363-2.863-21.496-.893-12.132 1.97-12.132 1.97-13 19.468-.867 17.498-.867 17.498 14.59 30.195z"
      class="c2 s4" id="p135" />
    <path
      d="M689.526 337.315c6.87 17.813 6.87 17.813 10.478 19.885 3.608 2.072 3.608 2.072 15.953-2.037 12.346-4.11 12.346-4.11 21.413-21.253s9.067-17.143-6.544-29.48c-15.61-12.336-15.61-12.336-31.455-.533-16.715 15.606-16.715 15.606-9.845 33.418z"
      class="c3 s3" id="p136" />
    <path
      d="M97.935 344.687c24.412-9.878 24.412-9.878 25.759-18.355 1.346-8.477 1.346-8.477-4.832-24.01-6.178-15.533-6.178-15.533-10.413-15.889-4.235-.355-4.235-.355-12.371 3.547-8.136 3.9-8.136 3.9-16.651 33.99-5.904 30.594-5.904 30.594 18.508 20.717z"
      class="c4 s4" id="p137" />
    <path
      d="M135.811 346.547c9.544 10.919 9.544 10.919 21.472 7.548 11.928-3.371 11.928-3.371 13.317-20.327 1.39-16.956 1.39-16.956-20.193-15.601-21.581 1.355-21.581 1.355-22.86 9.408-1.28 8.053-1.28 8.053 8.264 18.972z"
      class="c2 s5" id="p138" />
    <path
      d="M185.37 357.86c12.18 6.716 12.18 6.716 17.717 5.142 5.538-1.575 5.538-1.575 9.904-24.383s4.366-22.808 2.208-26.657c-2.158-3.85-2.158-3.85-20.68.53-18.521 4.38-18.521 4.38-19.925 21.516s-1.404 17.136 10.776 23.852z"
      class="c5 s5" id="p139" />
    <path
      d="M220.497 366.007c7.895 4.083 7.895 4.083 20.118.97 12.223-3.114 12.223-3.114 17.684-17.388 5.46-14.274 5.46-14.274 3.784-17.288-1.677-3.015-1.677-3.015-21.374-8.66s-19.697-5.645-23.902 16.319c-4.205 21.964-4.205 21.964 3.69 26.047z"
      class="c2 s4" id="p140" />
    <path
      d="M630.262 341.108c.85 8.651.85 8.651 13.144 19.562 12.293 10.912 12.293 10.912 30.56 2.846 18.268-8.067 18.268-8.067 11.809-24.811-6.459-16.745-6.459-16.745-31.411-11.497-24.952 5.249-24.952 5.249-24.102 13.9z"
      class="c1 s3" id="p141" />
    <path
      d="M746.445 360.852c14.114 8.862 14.114 8.862 26.207 1.8 12.094-7.063 12.094-7.063 13.705-17.596 1.611-10.533 1.611-10.533-4.808-21.825s-6.419-11.292-18.819-8.281c-12.4 3.011-12.4 3.011-21.399 20.026s-8.999 17.015 5.114 25.876z"
      class="c5 s3" id="p142" />
    <path
      d="M24.51 380.055c22.511-6.07 22.511-6.07 28.645-14.346s6.134-8.276-13.983-32.183-20.117-23.907-28.644-23.148C2 311.136 2 311.136 2 348.63s0 37.494 22.51 31.425z"
      class="c5 s4" id="p143" />
    <path
      d="M864.688 358.193c2.855 18.35 2.855 18.35 12.652 19.977 9.797 1.626 9.797 1.626 25.229-10.186C918 351.768 918 351.768 897.63 337.624c-20.37-14.145-20.37-14.145-28.084-5.964-7.715 8.182-7.715 8.182-4.86 26.533z"
      class="c5 s3" id="p144" />
    <path
      d="M572.787 343.45c.617 8.842.617 8.842 5.524 21.047s4.907 12.205 9.842 14.807c4.935 2.601 4.935 2.601 21.947-13.376s17.012-15.977 16.12-25.06c-3.627-11.768-3.627-11.768-26.061-13.289-22.434-1.52-22.434-1.52-25.212 2.755-2.777 4.275-2.777 4.275-2.16 13.117z"
      class="c3 s5" id="p145" />
    <path
      d="M453.675 365.672c7.063 14.519 7.063 14.519 19.709 17.63 12.646 3.112 12.646 3.112 16.599.285 3.953-2.828 3.953-2.828 9.658-13.386 5.706-10.557 5.706-10.557 6.176-21.123.47-10.565.47-10.565-3.662-12.701-4.133-2.136-4.133-2.136-25.19 1.125-21.056 3.261-21.056 3.261-25.704 8.456-4.65 5.195-4.65 5.195 2.414 19.714z"
      class="c5 s5" id="p146" />
    <path
      d="M342.267 356.993c3.4 11.606 3.4 11.606 25.989 10.661 22.589-.945 22.589-.945 24.42-6.107 1.83-5.162 1.83-5.162-13.534-17.784-15.365-12.622-15.365-12.622-27.82-5.499-12.454 7.123-12.454 7.123-9.055 18.729z"
      class="c2 s5" id="p147" />
    <path
      d="M800.194 367.36c11.482 11.238 11.482 11.238 17.34 10.914 5.856-.325 5.856-.325 7.428-20.515 1.571-20.19 1.571-20.19-15.817-20.871-17.388-.68-17.388-.68-18.911 9.277-1.523 9.958-1.523 9.958 9.96 21.195z"
      class="c1 s3" id="p148" />
    <path
      d="M521.488 362.522c12.096 3.78 12.096 3.78 29.972-3.645 17.875-7.427 17.875-7.427 17.337-15.138-.538-7.712-.538-7.712-26.83-8.476-26.291-.765-26.291-.765-28.98 1.176-2.69 1.94-2.69 1.94-3.143 12.121-.453 10.181-.453 10.181 11.644 13.962z"
      class="c1 s4" id="p149" />
    <path
      d="M836.267 383.1c8.92 4.44 8.92 4.44 18.126-.723 9.206-5.162 9.206-5.162 6.382-23.313-2.824-18.15-2.824-18.15-16.209-20.42-13.958-1.88-13.958-1.88-15.588 19.068-1.63 20.947-1.63 20.947 7.29 25.387z"
      class="c4 s5" id="p150" />
    <path
      d="M270.021 377.274c13.333 12.28 13.333 12.28 19.568 10.466 6.234-1.813 6.234-1.813 9.12-23.843 2.884-22.03 2.884-22.03-14.28-24.29-17.164-2.26-17.164-2.26-22.452 11.564-5.289 13.822-5.289 13.822 8.044 26.103z"
      class="c4 s4" id="p151" />
    <path
      d="M93.154 372.403c15.806 15.072 15.806 15.072 30.508 8.421 14.702-6.65 14.702-6.65 16.747-13.625 2.045-6.974 2.045-6.974-7.394-17.773-9.44-10.8-9.44-10.8-32.553-1.447-23.114 9.353-23.114 9.353-7.308 24.424z"
      class="c3 s5" id="p152" />
    <path
      d="M319.75 380.682c19.817-5.547 22.29-10.235 18.69-22.527-3.6-12.292-3.6-12.292-14.17-17.244s-10.57-4.952-14.57-2.28c-4 2.673-4 2.673-6.938 25.114-2.83 22.484-2.83 22.484 16.988 16.937z"
      class="c5 s5" id="p153" />
    <path
      d="M544.274 381.8c7.66 12.426 7.66 12.426 21.27 3.971 13.61-8.454 13.61-8.454 9.198-19.428-4.412-10.974-4.412-10.974-21.27-3.97-16.858 7.002-16.858 7.002-9.198 19.428z"
      class="c4 s4" id="p154" />
    <path
      d="M398.392 392.29c4.054 23.466 4.054 23.466 11.276 23.073 7.221-.392 7.221-.392 27.21-17.187 19.99-16.795 19.99-16.795 12.979-31.208-7.012-14.414-7.012-14.414-21.457-17.743-14.445-3.33-14.445-3.33-22.154 2.217-7.71 5.546-7.71 5.546-9.809 11.465-2.099 5.92-2.099 5.92 1.955 29.384z"
      class="c3 s4" id="p155" />
    <path
      d="M601.873 394.563c5.911 9.869 5.911 9.869 13.523 12.29 7.613 2.42 7.613 2.42 18.001-.688 10.389-3.107 10.389-3.107 15.01-17.357 4.62-14.25 4.62-14.25-7.275-24.808-11.895-10.557-11.895-10.557-28.533 5.069-16.638 15.625-16.638 15.625-10.726 25.494z"
      class="c2 s4" id="p156" />
    <path
      d="M151.713 390.452c9.516 15.137 9.516 15.137 19.4 13.125 9.884-2.011 9.884-2.011 16.777-18.985 6.893-16.974 6.893-16.974-5.076-23.574-11.97-6.6-11.97-6.6-24.247-3.13-12.277 3.47-12.277 3.47-14.323 10.449-2.047 6.978-2.047 6.978 7.469 22.115z"
      class="c1 s3" id="p157" />
    <path
      d="M520.803 392.974c22.6 11.698 22.6 11.698 25.343 7.816 2.742-3.882 2.742-3.882-5.517-17.279-8.258-13.397-8.258-13.397-20.293-17.158-12.035-3.762-12.035-3.762-17.084 5.581-5.05 9.343-5.05 9.343 17.551 21.04z"
      class="c2 s4" id="p158" />
    <path
      d="M763.035 386.25c.473 13.073.473 13.073 13.579 16.228 13.106 3.154 13.106 3.154 22.374-9.238 9.269-12.392 9.269-12.392-1.725-23.15-10.993-10.76-10.993-10.76-22.847-3.837-11.853 6.922-11.853 6.922-11.38 19.996z"
      class="c4 s4" id="p159" />
    <path
      d="M709.305 391.485c3.717 28.655 3.717 28.655 15.78 28.152 12.061-.502 12.061-.502 23.253-10.06s11.192-9.558 10.708-22.976c-.485-13.419-.485-13.419-15.05-22.563-14.564-9.145-14.564-9.145-26.486-5.176-11.922 3.968-11.922 3.968-8.205 32.623z"
      class="c1 s4" id="p160" />
    <path
      d="M351.109 401.432c8.009 24.42 8.009 24.42 12.671 26.261 4.662 1.841 4.662 1.841 16.802-1.45 12.14-3.293 12.14-3.293 15.093-6.19 2.954-2.897 2.954-2.897-1.057-26.114-4.011-23.216-4.011-23.216-26.605-22.271-24.914 5.343-24.914 5.343-16.904 29.764z"
      class="c1 s3" id="p161" />
    <path
      d="M668.744 418.342c21.017 14.47 21.017 14.47 25.322 14.264 4.305-.206 4.305-.206 9.702-5.655 5.398-5.45 5.398-5.45 1.583-34.853-3.814-29.404-3.814-29.404-7.249-31.378-3.434-1.973-3.434-1.973-22.289 6.353-18.854 8.325-18.854 8.325-23.47 22.562-4.616 14.237-4.616 14.237 16.401 28.707z"
      class="c1 s5" id="p162" />
    <path
      d="M232.11 392.492c1.807 18.76 1.807 18.76 19.317 19.654 17.51.893 17.51.893 23.204-9.526 5.694-10.418 5.694-10.418-7.58-22.643-13.273-12.226-13.273-12.226-25.01-9.236-11.737 2.99-11.737 2.99-9.93 21.75z"
      class="c2 s4" id="p163" />
    <path
      d="M897.177 404.066c7.163 21.435 7.163 21.435 13.993 22.402 6.83.967 6.83.967 6.83-32.146s0-33.113-13.993-22.402c-13.993 10.711-13.993 10.711-6.83 32.146z"
      class="c3 s4" id="p164" />
    <path
      d="M198.924 416.282c14.112 13.478 14.112 13.478 22.6 4.812 8.487-8.666 8.487-8.666 6.613-28.134-1.875-19.468-1.875-19.468-9.935-23.637-8.06-4.168-8.06-4.168-13.736-2.555-5.676 1.614-5.676 1.614-12.665 18.825-6.99 17.211-6.99 17.211 7.123 30.69z"
      class="c4 s4" id="p165" />
    <path
      d="M56.236 392.076c5.777 16.011 5.777 16.011 20.324 23.543 14.546 7.532 14.546 7.532 21.119 4.385 6.572-3.147 6.572-3.147 7.687-16.256 1.115-13.11 1.115-13.11-15.741-29.182-26.598-15.458-26.598-15.458-32.882-6.98-6.284 8.478-6.284 8.478-.507 24.49z"
      class="c2 s4" id="p166" />
    <path
      d="M316.47 408.329c13.365 18.833 13.365 18.833 25.85 18.022 12.486-.812 12.486-.812 4.898-23.946-7.587-23.134-7.587-23.134-25.85-18.022-18.263 5.112-18.263 5.112-4.898 23.946z"
      class="c4 s4" id="p167" />
    <path
      d="M124.699 425.395c16.445 8.398 16.445 8.398 24.823-4.593 8.379-12.99 8.379-12.99-.942-27.817-9.32-14.827-9.32-14.827-23.726-8.31-14.405 6.516-14.405 6.516-15.503 19.419-1.097 12.903-1.097 12.903 15.348 21.3z"
      class="c2 s3" id="p168" />
    <path
      d="M798.377 420c5.527 11.875 5.527 11.875 11.517 12.6 5.99.725 5.99.725 19.617-20.25 13.651-21.35 13.651-21.35 4.486-25.913-9.166-4.562-9.166-4.562-15.606-4.205-6.441.357-6.441.357-15.991 13.125s-9.55 12.768-4.023 24.643z"
      class="c3 s4" id="p169" />
    <path
      d="M857.148 412.213c10.018 20.588 10.018 20.588 20.475 21.805 10.458 1.217 10.458 1.217 16.65-3.136 6.193-4.353 6.193-4.353-.965-25.774-7.159-21.421-7.159-21.421-17.156-23.08-9.997-1.66-9.997-1.66-19.49 3.663-9.531 5.934-9.531 5.934.486 26.522z"
      class="c1 s5" id="p170" />
    <path
      d="M546.073 417.237c.04 9.356.04 9.356 18.84 10.722 18.8 1.367 18.8 1.367 28.943-10.349 10.142-11.716 10.142-11.716 4.138-21.739-6.004-10.023-6.004-10.023-11.14-12.73-5.137-2.708-5.137-2.708-19.654 6.31-14.517 9.017-14.517 9.017-17.841 13.724-3.325 4.706-3.325 4.706-3.286 14.062z"
      class="c4 s5" id="p171" />
    <path
      d="M489.541 403.42c1.019 13.872 1.019 13.872 10.627 25.873 9.608 12 9.608 12 22.172 10.032 12.565-1.969 12.565-1.969 16.171-6.753 3.607-4.784 3.607-4.784 3.566-14.444-.04-9.66-.04-9.66-23.237-21.666s-23.197-12.006-26.757-9.46c-3.56 2.548-3.56 2.548-2.542 16.419z"
      class="c3 s4" id="p172" />
    <path
      d="M16.804 439.477c14.804 7.915 14.804 7.915 28.083-11.176 13.279-19.091 13.279-19.091 7.674-34.624-5.604-15.532-5.604-15.532-28.083-9.47C2 390.266 2 390.266 2 410.913c0 20.648 0 20.648 14.804 28.563z"
      class="c4 s4" id="p173" />
    <path
      d="M435.623 426.946c14.667 10.166 14.667 10.166 32.783.076s18.116-10.09 17.134-23.47c-.983-13.38-.983-13.38-13.332-16.42-12.35-3.038-12.35-3.038-31.801 13.304-19.452 16.343-19.452 16.343-4.784 26.51z"
      class="c2 s4" id="p174" />
    <path
      d="M275.336 425.433c3.09 10.111 3.09 10.111 20.911 11.93 17.822 1.819 17.822 1.819 23.867-3.325 6.045-5.144 6.045-5.144-7.762-24.6-14.808-19.846-14.808-19.846-21.487-17.903-6.68 1.943-6.68 1.943-12.648 12.864-5.97 10.922-5.97 10.922-2.88 21.034z"
      class="c4 s4" id="p175" />
    <path
      d="M828.532 443.2c9.04 8.087 9.04 8.087 21.897-.57 12.859-8.658 12.859-8.658 3.64-27.603-9.218-18.945-9.218-18.945-21.898.57-12.679 19.516-12.679 19.516-3.64 27.603z"
      class="c3 s4" id="p176" />
    <path
      d="M757.895 439.764c17.095 18.49 17.095 18.49 29.677 6.011 12.582-12.478 12.582-12.478 7.068-24.325-5.514-11.846-5.514-11.846-19.033-15.1-13.52-3.255-13.52-3.255-24.163 5.835-10.644 9.089-10.644 9.089 6.451 27.579z"
      class="c1 s5" id="p177" />
    <path
      d="M166.959 450.132c22.582 13.973 22.582 13.973 33.302-.883 10.775-15.867 10.775-15.867-3.832-29.818s-14.607-13.951-24.77-11.883c-10.163 2.069-10.163 2.069-18.722 15.34-8.56 13.271-8.56 13.271 14.022 27.244z"
      class="c5 s3" id="p178" />
    <path
      d="M238 448.666c22.993 14.638 22.993 14.638 29.87 1.584 6.877-13.054 6.877-13.054 3.797-23.139-3.08-10.085-3.08-10.085-20.93-10.995-17.847-.91-17.847-.91-26.773 8.203-8.957 9.708-8.957 9.708 14.036 24.347z"
      class="c2 s3" id="p179" />
    <path
      d="M56.741 454.235c22.085 4.22 22.085 4.22 27.007-11.81 4.922-16.031 4.922-16.031-8.894-23.185-13.817-7.154-13.817-7.154-27.007 11.81-13.19 18.964-13.19 18.964 8.894 23.185z"
      class="c5 s5" id="p180" />
    <path
      d="M627.172 431.087c2.012 18.283 2.012 18.283 14.414 24.895 12.403 6.611 12.403 6.611 28.366-7.175 15.964-13.787 15.964-13.787-4.484-27.865-20.448-14.078-20.448-14.078-30.378-11.108-9.929 2.97-9.929 2.97-7.918 21.253z"
      class="c1 s4" id="p181" />
    <path
      d="M590.56 450.528c3.834 18.573 3.834 18.573 19.23 8.83 15.397-9.742 15.397-9.742 13.376-28.112-2.021-18.369-2.021-18.369-9.04-20.6-7.019-2.232-7.019-2.232-17.209 9.539-10.19 11.77-10.19 11.77-6.356 30.343z"
      class="c5 s3" id="p182" />
    <path
      d="M457.74 459.224C462.956 478 462.956 478 475.463 478c12.507 0 12.507 0 21.797-17.168 9.29-17.168 9.29-17.168.068-28.686s-9.222-11.518-27.013-1.608c-17.792 9.91-17.792 9.91-12.575 28.686z"
      class="c2 s4" id="p183" />
    <path
      d="M87.362 469.258C92.347 478 92.347 478 105.603 478s13.256 0 23.6-20.265c10.345-20.266 10.345-20.266-6.37-28.802-16.714-8.536-16.714-8.536-23.41-5.33-6.697 3.207-6.697 3.207-11.871 20.06-5.175 16.853-5.175 16.853-.19 25.595z"
      class="c2 s4" id="p184" />
    <path
      d="M548.56 458.698C558.744 478 558.744 478 573.677 478c14.934 0 14.934 0 16.098-2.923 1.165-2.923 1.165-2.923-2.847-22.36-4.012-19.439-4.012-19.439-22.94-20.814-18.926-1.376-18.926-1.376-22.269 3.059-3.343 4.435-3.343 4.435 6.841 23.736z"
      class="c4 s4" id="p185" />
    <path
      d="M405.668 451.635C415.267 478 415.267 478 437.036 478c21.768 0 21.768 0 16.587-18.651-5.181-18.651-5.181-18.651-20.858-29.517-15.676-10.866-15.676-10.866-23.4-10.447-7.725.42-7.725.42-10.51 3.152-2.786 2.733-2.786 2.733 6.813 29.098z"
      class="c3 s4" id="p186" />
    <path
      d="M708.864 456.445C716.193 478 716.193 478 743.863 478s27.67 0 28.334-8.078c.665-8.077.665-8.077-17.226-27.43-17.892-19.351-17.892-19.351-30.36-18.832-12.468.52-12.468.52-17.772 5.875-5.303 5.354-5.303 5.354 2.025 26.91z"
      class="c2 s3" id="p187" />
    <path
      d="M264.505 472.268C265.2 478 265.2 478 288.524 478s23.325 0 23.736-17.47c.412-17.47.412-17.47-16.904-19.237-17.315-1.767-17.315-1.767-24.43 11.738-7.115 13.506-7.115 13.506-6.42 19.237z"
      class="c1 s3" id="p188" />
    <path
      d="M840.138 466.418C840.816 478 840.816 478 862.514 478s21.698 0 22.842-19.461c1.144-19.462 1.144-19.462-8.931-20.634-10.075-1.172-10.075-1.172-23.52 7.88s-13.445 9.052-12.767 20.633z"
      class="c1 s3" id="p189" />
    <path
      d="M360.438 455.429c5.53-22.571 5.53-22.571 1.142-24.304-4.388-1.733-4.388-1.733-18.163-.837-13.776.895-13.776.895-20.25 6.404s-6.474 5.509-6.895 23.409C315.85 478 315.85 478 335.379 478c19.53 0 19.53 0 25.059-22.571z"
      class="c4 s5" id="p190" />
    <path
      d="M910.67 430.437c-7.332-1.038-7.332-1.038-13.727 3.458-6.396 4.495-6.396 4.495-7.56 24.3C888.218 478 888.218 478 903.109 478 918 478 918 478 918 454.738c0-23.263 0-23.263-7.33-24.3z"
      class="c2 s3" id="p191" />
    <path
      d="M836.129 466.378c-.68-11.623-.68-11.623-10.396-20.315-9.716-8.692-9.716-8.692-16.084-9.463-6.368-.771-6.368-.771-19.578 12.33-13.21 13.103-13.21 13.103-13.868 21.086-.657 7.984-.657 7.984 29.975 7.984 30.631 0 30.631 0 29.951-11.622z"
      class="c1 s5" id="p192" />
    <path
      d="M192.39 472.692c.282 5.308.282 5.308 34.531 5.308s34.249 0 33.603-5.332c-.645-5.331-.645-5.331-23.853-20.106-23.207-14.775-23.207-14.775-33.885.024-10.679 14.798-10.679 14.798-10.396 20.106z"
      class="c4 s5" id="p193" />
    <path
      d="M188.399 472.968c-.268-5.031-.268-5.031-22.932-19.055-22.664-14.024-22.664-14.024-32.39 5.032C123.35 478 123.35 478 156.008 478c32.659 0 32.659 0 32.39-5.032z"
      class="c3 s3" id="p194" />
    <path
      d="M29.552 465.121c1.717-12.879 1.262-13.618-13.145-21.32C2 436.098 2 436.098 2 457.049S2 478 14.918 478c12.917 0 12.917 0 14.634-12.879z"
      class="c5 s4" id="p195" />
    <path
      d="M544.567 459.702c-9.654-18.298-9.654-18.298-21.997-16.364-12.343 1.934-12.343 1.934-21.197 18.298C492.518 478 492.518 478 523.37 478c30.851 0 30.851 0 21.197-18.298z"
      class="c4 s5" id="p196" />
    <path
      d="M651.617 472.072c.53-5.927.53-5.927-11.844-12.524-12.376-6.598-12.376-6.598-28.755 3.767C592.917 478 592.917 478 622 478c29.085 0 29.085 0 29.616-5.928z"
      class="c4 s4" id="p197" />
    <path
      d="M401.754 452.577c-9.255-25.422-9.255-25.422-20.511-22.37-11.256 3.053-11.256 3.053-16.736 25.423-5.48 22.37-5.48 22.37 20.512 22.37 25.991 0 25.991 0 16.735-25.423z"
      class="c3 s5" id="p198" />
    <path
      d="M704.901 457.215c-7.066-20.784-7.066-20.784-11-20.597-3.934.188-3.934.188-20.828 14.78-16.895 14.59-16.895 14.59-17.433 20.596-.538 6.006-.538 6.006 27.895 6.006s28.433 0 21.366-20.785z"
      class="c1 s4" id="p199" />
    <path
      d="M83.337 470.274c-4.406-7.727-4.406-7.727-26.347-11.92-21.941-4.192-21.941-4.192-23.53 7.727C31.87 478 31.87 478 59.807 478c27.936 0 27.936 0 23.53-7.726z"
      class="c1 s3" id="p200" />
  </g>
</svg>
